<svg width="112" height="76" viewBox="0 0 112 76" fill="none" xmlns="http://www.w3.org/2000/svg">
<path d="M20.8231 22.8882L48.6543 45.8517L98.2682 41.331M20.8231 22.8882L1.87058 7.25043L62.3332 0.743079L110.562 40.2108L98.2682 41.331M20.8231 22.8882L14.9026 42.4119C14.3814 44.1309 14.1365 45.9506 14.6441 47.6737C16.5443 54.1245 23.6094 64.4846 41.5769 69.1905C58.1426 73.5293 69.5121 71.0474 75.3006 68.19C77.6099 67.05 78.9945 64.7647 79.7419 62.3001L85.7251 42.5696M98.2682 41.331L93.5482 56.8958M93.5482 56.8958L83.3337 71.5735L94.4766 74.9525L93.5482 56.8958Z" stroke="black" stroke-opacity="0.8"/>
</svg>
