<svg width="17" height="16" viewBox="0 0 17 16" fill="none" xmlns="http://www.w3.org/2000/svg">
<path d="M8.07502 0C5.11553 0 2.52748 1.61247 1.13742 4L1.06225 4.1333C0.423553 5.27913 0.0604248 6.59993 0.0604248 8C0.0604248 9.40007 0.423553 10.7209 1.06225 11.8667L1.13742 12C2.52324 14.3875 5.11553 16 8.07502 16C12.2702 16 15.7182 12.7666 16.0604 8.66667V7.33333C15.7182 3.2334 12.2702 0 8.07502 0ZM5.44099 1.875C5.09042 2.47087 4.79822 3.1875 4.57287 4H2.74451C3.44158 3.0791 4.36416 2.33756 5.44099 1.875ZM1.95548 10.6667C1.59659 9.84994 1.39619 8.95003 1.39619 8C1.39619 7.04997 1.59659 6.15007 1.95972 5.33333H4.28067C4.14289 6.16244 4.06772 7.0542 4.06772 8C4.06772 8.9458 4.14289 9.83757 4.28067 10.6667H1.95548ZM2.74451 12H4.57287C4.79822 12.8125 5.09042 13.5291 5.44099 14.125C4.36416 13.6624 3.44158 12.9209 2.74451 12ZM8.07502 14.6667C7.31941 14.6667 6.51391 13.6375 5.98788 12H10.1622C9.63613 13.6375 8.83063 14.6667 8.07502 14.6667ZM5.64563 10.6667C5.49121 9.8584 5.40349 8.95833 5.40349 8C5.40349 7.04167 5.49121 6.1416 5.64563 5.33333H8.7429V4H5.98788C6.51391 2.36247 7.32365 1.33333 8.07502 1.33333C9.26044 1.33333 10.5796 3.8584 10.7299 7.33333H6.73925V8.66667H10.7299C10.7006 9.37923 10.6213 10.05 10.5003 10.6667H5.64563ZM10.709 14.125C11.4813 12.8083 11.9863 10.8958 12.0698 8.66667H14.7204C14.4742 11.1208 12.8921 13.1875 10.709 14.125ZM12.0698 7.33333C11.9863 5.1084 11.4854 3.19173 10.709 1.875C12.8921 2.8125 14.4742 4.87923 14.7204 7.33333H12.0698Z" fill="#25262A"/>
</svg>
