<svg width="21" height="20" viewBox="0 0 21 20" fill="none" xmlns="http://www.w3.org/2000/svg">
<g clip-path="url(#clip0_1096_6590)">
<path d="M18 8.33301C18 14.1663 10.5 19.1663 10.5 19.1663C10.5 19.1663 3 14.1663 3 8.33301C3 6.34388 3.79018 4.43623 5.1967 3.02971C6.60322 1.62318 8.51088 0.833008 10.5 0.833008C12.4891 0.833008 14.3968 1.62318 15.8033 3.02971C17.2098 4.43623 18 6.34388 18 8.33301Z" stroke="black" stroke-width="2" stroke-linecap="round" stroke-linejoin="round"/>
<path d="M10.5 10.833C11.8807 10.833 13 9.71372 13 8.33301C13 6.9523 11.8807 5.83301 10.5 5.83301C9.11929 5.83301 8 6.9523 8 8.33301C8 9.71372 9.11929 10.833 10.5 10.833Z" stroke="black" stroke-width="2" stroke-linecap="round" stroke-linejoin="round"/>
</g>
<defs>
<clipPath id="clip0_1096_6590">
<rect width="20" height="20" fill="white" transform="translate(0.5)"/>
</clipPath>
</defs>
</svg>
