<svg width="18" height="18" viewBox="0 0 18 18" fill="none" xmlns="http://www.w3.org/2000/svg">
<path d="M4.29051 11.6357C5.86863 13.5222 7.76834 15.0075 9.93659 16.0584C10.7621 16.4496 11.8661 16.9138 13.0961 16.9934C13.1724 16.9967 13.2453 17 13.3216 17C14.1471 17 14.8102 16.7149 15.3506 16.1281C15.3539 16.1247 15.3605 16.1181 15.3639 16.1115C15.5562 15.8794 15.775 15.6705 16.0037 15.4484C16.1595 15.2992 16.3187 15.1434 16.4712 14.9843C17.1774 14.2482 17.1774 13.3133 16.4646 12.6005L14.472 10.608C14.1339 10.2565 13.7294 10.0709 13.305 10.0709C12.8806 10.0709 12.4729 10.2565 12.1247 10.6046L10.9378 11.7915C10.8284 11.7286 10.7157 11.6722 10.6096 11.6191C10.477 11.5528 10.3543 11.4898 10.2449 11.4202C9.16411 10.7339 8.18276 9.83879 7.24451 8.68835C6.77041 8.08827 6.45213 7.58433 6.23 7.07045C6.54165 6.78864 6.8334 6.49358 7.11521 6.20514C7.21467 6.10236 7.31744 5.99959 7.42022 5.89681C7.77828 5.53875 7.97057 5.12433 7.97057 4.70327C7.97057 4.28222 7.7816 3.8678 7.42022 3.50974L6.43224 2.52176C6.3162 2.40572 6.20679 2.293 6.09407 2.17696C5.87526 1.95151 5.6465 1.71944 5.42105 1.51057C5.07957 1.17571 4.67841 1 4.25404 1C3.83299 1 3.42851 1.17571 3.07377 1.51388L1.83382 2.75383C1.38292 3.20472 1.12764 3.75176 1.07459 4.385C1.0116 5.17737 1.15748 6.01948 1.53543 7.0373C2.11562 8.6121 2.99088 10.0742 4.29051 11.6357ZM1.88355 4.45462C1.92333 4.01368 2.09241 3.64567 2.41069 3.32739L3.64401 2.09407C3.8363 1.90841 4.04849 1.81227 4.25404 1.81227C4.45628 1.81227 4.66183 1.90841 4.85081 2.1007C5.07294 2.30626 5.28181 2.52176 5.50725 2.75052C5.61997 2.86656 5.73601 2.98259 5.85205 3.10195L6.84003 4.08993C7.04558 4.29548 7.15168 4.50435 7.15168 4.7099C7.15168 4.91546 7.04558 5.12433 6.84003 5.32988C6.73725 5.43266 6.63448 5.53875 6.5317 5.64152C6.22337 5.95317 5.93493 6.24824 5.61666 6.53005C5.61003 6.53668 5.60671 6.53999 5.60008 6.54662C5.3249 6.8218 5.368 7.08371 5.43431 7.28264C5.43763 7.29258 5.44094 7.29921 5.44426 7.30916C5.69954 7.9225 6.05429 8.50601 6.60795 9.20224C7.60257 10.4289 8.65023 11.3804 9.80398 12.1131C9.94654 12.206 10.099 12.2789 10.2416 12.3518C10.3742 12.4182 10.4969 12.4811 10.6063 12.5508C10.6196 12.5574 10.6295 12.564 10.6428 12.5707C10.7522 12.627 10.8583 12.6535 10.9644 12.6535C11.2296 12.6535 11.402 12.4845 11.4583 12.4281L12.6983 11.1881C12.8906 10.9959 13.0995 10.8931 13.305 10.8931C13.557 10.8931 13.7625 11.0489 13.8918 11.1881L15.891 13.184C16.2888 13.5818 16.2855 14.0128 15.8811 14.4339C15.7418 14.5831 15.5959 14.7257 15.4401 14.8748C15.208 15.1003 14.966 15.3324 14.7472 15.5943C14.3659 16.0054 13.9117 16.1977 13.3249 16.1977C13.2685 16.1977 13.2089 16.1944 13.1525 16.191C12.0651 16.1214 11.0539 15.6971 10.2947 15.3357C8.23249 14.3378 6.42229 12.9221 4.92043 11.1252C3.68379 9.63655 2.85164 8.25072 2.30128 6.76544C1.9598 5.85371 1.8305 5.12101 1.88355 4.45462Z" fill="#25262A" stroke="#25262A"/>
</svg>
