<?xml version="1.0" encoding="utf-8"?><svg viewBox="0 0 112 76" xmlns="http://www.w3.org/2000/svg" xmlns:xlink="http://www.w3.org/1999/xlink"><style>:root>svg{display:none}:root>svg:target{display:block}</style><svg fill="none" viewBox="0 0 112 76" id="corporate-hat" xmlns="http://www.w3.org/2000/svg"><path d="M20.823 22.888l27.831 22.964 49.614-4.521M20.823 22.888L1.871 7.25 62.333.743l48.229 39.468-12.294 1.12M20.823 22.888l-5.92 19.524c-.522 1.719-.767 3.539-.259 5.262 1.9 6.45 8.965 16.81 26.933 21.517 16.566 4.338 27.935 1.856 33.724-1.001 2.309-1.14 3.694-3.425 4.44-5.89l5.984-19.73m12.543-1.239l-4.72 15.565m0 0L83.334 71.573l11.143 3.38-.929-18.057z" stroke="#000" stroke-opacity=".8"/></svg><svg fill="none" viewBox="0 0 16 12" id="done" xmlns="http://www.w3.org/2000/svg"><path d="M14.667 1L5.5 10.167 1.333 6" stroke="#000" stroke-width="2" stroke-linecap="round" stroke-linejoin="round"/></svg><svg fill="none" viewBox="0 0 17 16" id="email" xmlns="http://www.w3.org/2000/svg"><path d="M8.075 0a8.028 8.028 0 00-6.938 4l-.075.133A7.924 7.924 0 00.06 8c0 1.4.364 2.72 1.002 3.867l.075.133a8.023 8.023 0 006.938 4 8.02 8.02 0 007.985-7.333V7.333A8.02 8.02 0 008.075 0zM5.441 1.875c-.35.596-.643 1.313-.868 2.125H2.745A6.714 6.714 0 015.44 1.875zm-3.486 8.792a6.606 6.606 0 01.005-5.334h2.32c-.137.83-.212 1.721-.212 2.667 0 .946.075 1.838.213 2.667H1.955zM2.745 12h1.828c.225.813.517 1.53.868 2.125A6.714 6.714 0 012.745 12zm5.33 2.667c-.756 0-1.561-1.03-2.087-2.667h4.174c-.526 1.637-1.331 2.667-2.087 2.667zm-2.43-4A14.292 14.292 0 015.404 8c0-.958.088-1.858.243-2.667h3.097V4H5.988c.526-1.638 1.336-2.667 2.087-2.667 1.185 0 2.505 2.525 2.655 6H6.74v1.334h3.99c-.03.712-.109 1.383-.23 2H5.646zm5.064 3.458c.772-1.317 1.277-3.23 1.36-5.458h2.651a6.68 6.68 0 01-4.011 5.458zm1.36-6.792c-.083-2.225-.584-4.141-1.36-5.458a6.681 6.681 0 014.011 5.458h-2.65z" fill="#25262A"/></svg><svg fill="none" viewBox="0 0 17 16" id="facebook" xmlns="http://www.w3.org/2000/svg"><path d="M16.5 8a8 8 0 10-9.25 7.903v-5.59H5.219V8H7.25V6.237c0-2.005 1.194-3.112 3.022-3.112.875 0 1.79.156 1.79.156V5.25h-1.008c-.994 0-1.304.617-1.304 1.25V8h2.219l-.355 2.313H9.75v5.59A8.002 8.002 0 0016.5 8z" fill="#fff"/></svg><svg fill="none" viewBox="0 0 17 16" id="insta" xmlns="http://www.w3.org/2000/svg"><g clip-path="url(#eclip0_1096_6615)" fill="#fff"><path d="M8.5 1.44c2.137 0 2.39.01 3.231.048.781.034 1.203.165 1.485.274.372.144.64.32.918.597.282.282.454.547.597.92.11.28.24.705.275 1.484.038.843.047 1.096.047 3.23 0 2.138-.01 2.391-.047 3.232-.034.781-.165 1.203-.275 1.484-.143.372-.319.641-.597.92a2.46 2.46 0 01-.918.596c-.282.11-.707.24-1.485.275-.844.037-1.097.047-3.231.047-2.138 0-2.39-.01-3.231-.047-.782-.034-1.203-.166-1.485-.275a2.472 2.472 0 01-.918-.597 2.46 2.46 0 01-.597-.919c-.11-.28-.24-.706-.275-1.484-.038-.844-.047-1.097-.047-3.231 0-2.138.01-2.39.047-3.231.034-.782.165-1.204.275-1.485.143-.372.318-.64.597-.919a2.46 2.46 0 01.918-.597c.282-.109.707-.24 1.485-.274.84-.038 1.093-.047 3.231-.047zM8.5 0C6.328 0 6.056.01 5.203.047c-.85.037-1.434.175-1.94.372a3.905 3.905 0 00-1.42.925A3.92 3.92 0 00.92 2.759C.722 3.27.584 3.85.547 4.7.509 5.556.5 5.828.5 8c0 2.172.01 2.444.047 3.297.037.85.175 1.434.372 1.94.206.529.478.976.925 1.42.444.443.89.718 1.415.921.51.197 1.091.335 1.941.372.853.038 1.125.047 3.297.047s2.444-.01 3.297-.047c.85-.037 1.434-.175 1.94-.372a3.91 3.91 0 001.416-.922 3.91 3.91 0 00.922-1.415c.197-.51.334-1.091.372-1.941.037-.853.047-1.125.047-3.297s-.01-2.444-.047-3.297c-.038-.85-.175-1.434-.372-1.94a3.748 3.748 0 00-.916-1.422 3.911 3.911 0 00-1.415-.922C13.23.225 12.65.088 11.8.05 10.944.01 10.672 0 8.5 0z"/><path d="M8.5 3.89a4.11 4.11 0 000 8.22 4.11 4.11 0 000-8.22zm0 6.776a2.666 2.666 0 110-5.332 2.666 2.666 0 010 5.332zM13.731 3.728a.96.96 0 11-1.919 0 .96.96 0 011.92 0z"/></g><defs><clipPath id="eclip0_1096_6615"><path fill="#fff" transform="translate(.5)" d="M0 0h16v16H0z"/></clipPath></defs></svg><svg fill="none" viewBox="0 0 17 16" id="linkdin" xmlns="http://www.w3.org/2000/svg"><path d="M15.316 0H1.68C1.028 0 .5.516.5 1.153v13.69A1.17 1.17 0 001.681 16h13.635c.653 0 1.184-.519 1.184-1.153V1.153C16.5.516 15.969 0 15.316 0zM5.246 13.634H2.873V5.997h2.375v7.637zM4.06 4.956a1.376 1.376 0 11-.004-2.751 1.376 1.376 0 01.004 2.751zm10.075 8.678h-2.372V9.922c0-.885-.015-2.025-1.234-2.025-1.234 0-1.422.966-1.422 1.962v3.775H6.737V5.997h2.275V7.04h.032c.315-.6 1.09-1.235 2.243-1.235 2.404 0 2.847 1.582 2.847 3.638v4.19z" fill="#fff"/></svg><svg fill="none" viewBox="0 0 30 30" id="map-pin" xmlns="http://www.w3.org/2000/svg"><path d="M26.25 12.5C26.25 21.25 15 28.75 15 28.75S3.75 21.25 3.75 12.5a11.25 11.25 0 1122.5 0z" stroke="#39AAE1" stroke-width="2" stroke-linecap="round" stroke-linejoin="round"/><path d="M15 16.25a3.75 3.75 0 100-7.5 3.75 3.75 0 000 7.5z" stroke="#39AAE1" stroke-width="2" stroke-linecap="round" stroke-linejoin="round"/></svg><svg fill="none" viewBox="0 0 21 20" id="point" xmlns="http://www.w3.org/2000/svg"><g clip-path="url(#hclip0_1096_6590)" stroke="#000" stroke-width="2" stroke-linecap="round" stroke-linejoin="round"><path d="M18 8.333c0 5.833-7.5 10.833-7.5 10.833S3 14.166 3 8.333a7.5 7.5 0 1115 0z"/><path d="M10.5 10.833a2.5 2.5 0 100-5 2.5 2.5 0 000 5z"/></g><defs><clipPath id="hclip0_1096_6590"><path fill="#fff" transform="translate(.5)" d="M0 0h20v20H0z"/></clipPath></defs></svg><svg fill="none" viewBox="0 0 18 18" id="telephone" xmlns="http://www.w3.org/2000/svg"><path d="M4.29 11.636a16.973 16.973 0 005.647 4.422c.825.392 1.93.856 3.16.935.075.004.148.007.225.007.825 0 1.488-.285 2.029-.872.003-.003.01-.01.013-.017.192-.232.411-.44.64-.663.155-.149.315-.305.467-.464.706-.736.706-1.67-.006-2.383l-1.993-1.993c-.338-.351-.743-.537-1.167-.537-.424 0-.832.186-1.18.534l-1.187 1.186c-.11-.062-.222-.119-.328-.172a4.105 4.105 0 01-.365-.199c-1.08-.686-2.062-1.581-3-2.732-.475-.6-.793-1.104-1.015-1.618.312-.281.603-.576.885-.865.1-.103.202-.205.305-.308.358-.358.55-.773.55-1.194 0-.42-.188-.835-.55-1.193l-.988-.988c-.116-.116-.225-.229-.338-.345a18.175 18.175 0 00-.673-.666C5.08 1.176 4.678 1 4.254 1c-.421 0-.825.176-1.18.514l-1.24 1.24c-.451.45-.706.998-.76 1.631-.062.792.083 1.634.461 2.652.58 1.575 1.456 3.037 2.756 4.599zM1.885 4.455c.04-.441.208-.81.527-1.128l1.233-1.233c.192-.186.404-.282.61-.282.202 0 .408.096.597.289.222.205.43.42.656.65l.345.351.988.988c.206.205.312.414.312.62 0 .205-.106.414-.312.62l-.308.312c-.309.311-.597.606-.915.888l-.017.017c-.275.275-.232.537-.166.736l.01.026c.256.614.61 1.197 1.164 1.893.995 1.227 2.042 2.178 3.196 2.911.143.093.295.166.438.239.132.066.255.13.364.199.014.006.024.013.037.02.11.056.215.082.321.082a.703.703 0 00.494-.225l1.24-1.24c.193-.192.402-.295.607-.295.252 0 .457.156.587.295l1.999 1.996c.398.398.394.829-.01 1.25-.14.15-.285.292-.44.44-.233.226-.475.458-.694.72-.381.411-.835.604-1.422.604-.056 0-.116-.004-.172-.007-1.088-.07-2.1-.494-2.858-.855a16.125 16.125 0 01-5.375-4.21c-1.236-1.49-2.068-2.875-2.619-4.36-.341-.912-.47-1.645-.417-2.311z" fill="#25262A" stroke="#25262A"/></svg><svg fill="none" viewBox="0 0 30 30" id="users" xmlns="http://www.w3.org/2000/svg"><path d="M21.25 26.25v-2.5a5 5 0 00-5-5h-10a5 5 0 00-5 5v2.5M11.25 13.75a5 5 0 100-10 5 5 0 000 10zM28.75 26.25v-2.5A5 5 0 0025 18.913M20 3.913a5 5 0 010 9.687" stroke="#39AAE1" stroke-width="2" stroke-linecap="round" stroke-linejoin="round"/></svg></svg>